<svg width="375" height="812" viewBox="0 0 375 812" fill="none" xmlns="http://www.w3.org/2000/svg">
<g clip-path="url(#clip0_1_351)">
<rect width="375" height="812" fill="#FAF9FE"/>
<g filter="url(#filter0_iii_1_351)">
<ellipse cx="8" cy="751.5" rx="26" ry="25.5" fill="#C0B5EC"/>
<circle cx="382" cy="561" r="20" fill="#A899E4"/>
<circle cx="77" cy="541" r="30" fill="#A899E4"/>
<ellipse cx="290.5" cy="530.5" rx="39.5" ry="38.5" fill="#C0B5EC"/>
<circle cx="170" cy="474" r="15" transform="rotate(-180 170 474)" fill="#C0B5EC"/>
<circle cx="259" cy="459" r="8" fill="#AFA8CB"/>
<circle cx="368" cy="444" r="23" fill="#EDEAFA"/>
<ellipse cx="202" cy="370.5" rx="25" ry="25.5" fill="#D8D3EB"/>
<circle cx="22.5" cy="420.5" r="81.5" fill="#EDEAFA"/>
<ellipse cx="320" cy="355.5" rx="33" ry="32.5" fill="#C0B5EC"/>
<circle cx="375" cy="244" r="24" fill="#A899E4"/>
<ellipse cx="44" cy="256.5" rx="36" ry="36.5" fill="#D8D3EB"/>
<circle cx="224.5" cy="207.5" r="12.5" fill="#C0B5EC"/>
<circle cx="170" cy="197" r="8" fill="#EDEAFA"/>
<circle r="7.5" transform="matrix(1 0 0 -1 236.5 147.5)" fill="#AFA8CB"/>
<circle cx="114.5" cy="160.5" r="15.5" fill="#AFA8CB"/>
<circle cx="345" cy="154" r="25" fill="#EDEAFA"/>
<circle cx="46" cy="112" r="23" fill="#A899E4"/>
<ellipse cx="180.5" cy="121" rx="32.5" ry="33" fill="#D8D3EB"/>
<ellipse cx="264" cy="78.5" rx="20" ry="20.5" fill="#A899E4"/>
<circle cx="137.5" cy="56.5" r="7.5" fill="#D8D3EB"/>
<ellipse cx="205" cy="10.5" rx="39" ry="39.5" fill="#AFA8CB"/>
<circle cx="61" cy="-6" r="27" fill="#EDEAFA"/>
<ellipse cx="369.5" cy="31.5" rx="72.5" ry="73.5" fill="#D8D3EB"/>
</g>
<path d="M78.1946 696.986H76.3766L72.9746 702.971L69.5096 696.986H67.6916L72.1286 704.456V710H73.7936V704.465L78.1946 696.986ZM82.4048 710.18C85.1768 710.18 86.6438 708.227 86.6438 705.383C86.6438 702.251 84.9698 700.514 82.4048 700.514C79.6508 700.514 78.1388 702.467 78.1388 705.383C78.1388 708.488 79.8218 710.18 82.4048 710.18ZM82.4048 708.866C80.5508 708.866 79.7858 707.309 79.7858 705.347C79.7858 703.133 80.7218 701.819 82.4048 701.819C84.2408 701.819 84.9968 703.358 84.9968 705.347C84.9968 707.534 84.0788 708.866 82.4048 708.866ZM92.1453 710.171C93.4683 710.18 94.6023 709.604 94.9353 708.209L95.1153 709.991H96.4293L96.4563 700.667H94.7733V706.733C94.7733 708.146 93.8733 708.875 92.4963 708.875C90.9843 708.875 90.2373 708.047 90.2373 706.832V700.667H88.5723V706.994C88.5723 709.091 90.2103 710.153 92.1453 710.171ZM103.262 710H104.927V703.79C104.927 702.539 106.061 701.936 107.312 701.936C108.536 701.936 109.373 702.575 109.373 703.682V710H111.047V703.349C111.047 701.648 109.607 700.577 107.798 700.577C106.304 700.577 105.359 701.297 104.891 702.062V696.626H103.262V710ZM116.252 710.18C117.584 710.18 118.727 709.703 119.447 708.254L119.573 710H120.995V703.502C120.995 701.558 119.789 700.514 117.368 700.514C115.109 700.514 113.723 701.513 113.624 703.322H115.091C115.325 702.215 116.216 701.747 117.287 701.738C118.718 701.738 119.393 702.458 119.393 703.592V704.321L117.728 704.366C114.542 704.438 113.183 705.419 113.183 707.48C113.183 709.181 114.443 710.18 116.252 710.18ZM116.747 708.983C115.604 708.983 114.803 708.371 114.803 707.318C114.803 705.941 115.874 705.41 118.007 705.374L119.393 705.347V706.94C119.384 707.975 117.998 708.983 116.747 708.983ZM130.845 700.694H129.288L126.804 707.912H126.651L124.176 700.694H122.61L125.976 710H127.488L130.845 700.694ZM133.516 705.734H140.185V705.122C140.185 702.296 138.727 700.514 136.108 700.514C133.399 700.514 131.833 702.503 131.833 705.437C131.833 708.407 133.624 710.18 136.225 710.18C138.034 710.18 139.681 709.235 140.122 707.282H138.556C138.205 708.344 137.386 708.893 136.198 708.893C134.389 708.893 133.516 707.498 133.516 705.734ZM133.525 704.609C133.516 703.223 134.353 701.774 136.099 701.774C137.782 701.774 138.583 703.007 138.583 704.609H133.525ZM149.14 710.18C150.472 710.18 151.615 709.703 152.335 708.254L152.461 710H153.883V703.502C153.883 701.558 152.677 700.514 150.256 700.514C147.997 700.514 146.611 701.513 146.512 703.322H147.979C148.213 702.215 149.104 701.747 150.175 701.738C151.606 701.738 152.281 702.458 152.281 703.592V704.321L150.616 704.366C147.43 704.438 146.071 705.419 146.071 707.48C146.071 709.181 147.331 710.18 149.14 710.18ZM149.635 708.983C148.492 708.983 147.691 708.371 147.691 707.318C147.691 705.941 148.762 705.41 150.895 705.374L152.281 705.347V706.94C152.272 707.975 150.886 708.983 149.635 708.983ZM156.788 710H158.453V703.781C158.453 702.53 159.596 701.936 160.856 701.936C162.071 701.936 162.908 702.629 162.908 704.078V710H164.573V703.916C164.573 701.576 163.079 700.559 161.315 700.559C159.83 700.559 158.858 701.27 158.399 702.044V700.694H156.788V710ZM173.961 710.18C175.293 710.18 176.436 709.703 177.156 708.254L177.282 710H178.704V703.502C178.704 701.558 177.498 700.514 175.077 700.514C172.818 700.514 171.432 701.513 171.333 703.322H172.8C173.034 702.215 173.925 701.747 174.996 701.738C176.427 701.738 177.102 702.458 177.102 703.592V704.321L175.437 704.366C172.251 704.438 170.892 705.419 170.892 707.48C170.892 709.181 172.152 710.18 173.961 710.18ZM174.456 708.983C173.313 708.983 172.512 708.371 172.512 707.318C172.512 705.941 173.583 705.41 175.716 705.374L177.102 705.347V706.94C177.093 707.975 175.707 708.983 174.456 708.983ZM185.316 700.514C182.58 700.514 181.041 702.485 181.041 705.392C181.041 708.506 182.805 710.18 185.316 710.18C187.521 710.18 188.88 708.866 189.051 707.129H187.602C187.44 708.074 186.603 708.911 185.397 708.911C183.57 708.911 182.634 707.516 182.634 705.356C182.634 702.989 183.741 701.855 185.388 701.855C186.657 701.855 187.422 702.674 187.584 703.655L189.06 703.628C188.808 701.729 187.413 700.514 185.316 700.514ZM195.107 700.514C192.371 700.514 190.832 702.485 190.832 705.392C190.832 708.506 192.596 710.18 195.107 710.18C197.312 710.18 198.671 708.866 198.842 707.129H197.393C197.231 708.074 196.394 708.911 195.188 708.911C193.361 708.911 192.425 707.516 192.425 705.356C192.425 702.989 193.532 701.855 195.179 701.855C196.448 701.855 197.213 702.674 197.375 703.655L198.851 703.628C198.599 701.729 197.204 700.514 195.107 700.514ZM204.889 710.18C207.661 710.18 209.128 708.227 209.128 705.383C209.128 702.251 207.454 700.514 204.889 700.514C202.135 700.514 200.623 702.467 200.623 705.383C200.623 708.488 202.306 710.18 204.889 710.18ZM204.889 708.866C203.035 708.866 202.27 707.309 202.27 705.347C202.27 703.133 203.206 701.819 204.889 701.819C206.725 701.819 207.481 703.358 207.481 705.347C207.481 707.534 206.563 708.866 204.889 708.866ZM214.63 710.171C215.953 710.18 217.087 709.604 217.42 708.209L217.6 709.991H218.914L218.941 700.667H217.258V706.733C217.258 708.146 216.358 708.875 214.981 708.875C213.469 708.875 212.722 708.047 212.722 706.832V700.667H211.057V706.994C211.057 709.091 212.695 710.153 214.63 710.171ZM221.721 710H223.386V703.781C223.386 702.53 224.529 701.936 225.789 701.936C227.004 701.936 227.841 702.629 227.841 704.078V710H229.506V703.916C229.506 701.576 228.012 700.559 226.248 700.559C224.763 700.559 223.791 701.27 223.332 702.044V700.694H221.721V710ZM236.424 701.909V700.685H234.327V697.985H233.103L232.698 700.694H231.141V701.909H232.653V707.75C232.653 709.244 233.175 710.054 235.101 710.054C235.776 710.054 236.244 709.982 236.478 709.892V708.776H235.461C234.588 708.776 234.327 708.686 234.327 707.696V701.909H236.424ZM242.001 699.407L243.486 699.848C243.882 698.84 245.097 698.075 246.267 698.075C247.635 698.075 248.571 698.813 248.571 700.001C248.571 702.386 245.259 703.241 245.259 706.652H246.681C246.681 703.637 250.272 702.98 250.272 699.929C250.272 698.111 248.706 696.806 246.285 696.806C244.35 696.806 242.766 697.778 242.001 699.407ZM246.96 707.903H244.989V710H246.96V707.903ZM256.636 696.986L256.627 710H264.727V708.11H258.85V696.986H256.636ZM270.403 710.18C273.211 710.18 274.777 708.218 274.777 705.392C274.777 702.341 273.076 700.514 270.412 700.514C267.649 700.514 266.002 702.467 266.002 705.392C266.002 708.407 267.739 710.18 270.403 710.18ZM270.412 708.515C268.756 708.515 268.162 707.012 268.162 705.329C268.162 703.457 268.882 702.161 270.412 702.161C272.041 702.161 272.635 703.619 272.635 705.329C272.635 707.174 271.924 708.515 270.412 708.515ZM280.78 713.078C283.993 713.078 285.568 711.854 285.568 710.135C285.568 708.659 284.461 707.669 282.337 707.534C281.5 707.48 280.789 707.444 280.366 707.417C279.178 707.336 278.665 707.273 278.665 706.949C278.665 706.715 278.962 706.499 279.934 706.463C280.123 706.481 280.501 706.49 280.681 706.49C283.381 706.49 284.749 705.104 284.749 703.475C284.749 703.16 284.65 702.719 284.497 702.368L286.108 702.08L286.126 700.271C285.469 700.541 284.038 701.126 283.552 701.315C282.85 700.847 282.103 700.55 280.861 700.55C278.332 700.55 276.613 701.648 276.613 703.484C276.613 704.528 277.252 705.554 278.422 706.121C277.225 706.346 276.64 706.922 276.64 707.552C276.64 708.362 277.396 708.668 277.702 708.839C277.495 708.974 275.911 709.415 275.911 710.72C275.911 712.178 277.648 713.078 280.78 713.078ZM280.753 705.203C279.529 705.203 278.809 704.573 278.809 703.529C278.809 702.44 279.583 701.774 280.753 701.774C281.896 701.774 282.67 702.431 282.67 703.529C282.67 704.6 281.896 705.203 280.753 705.203ZM281.149 711.791C279.043 711.791 278.062 711.341 278.062 710.459C278.062 709.757 278.8 709.172 279.574 709.217L281.923 709.361C282.94 709.433 283.462 709.874 283.462 710.513C283.462 711.35 282.724 711.791 281.149 711.791ZM291.822 704.537L287.07 704.546V706.184L291.822 706.175V704.537ZM296.47 696.995H294.301V699.065H296.47V696.995ZM296.443 700.694H294.337V710H296.443V700.694ZM299.202 710H301.389V703.925C301.389 702.863 302.388 702.332 303.432 702.332C304.449 702.332 305.205 702.926 305.205 704.141V710H307.401V703.88C307.401 701.567 305.871 700.586 304.143 700.586C302.667 700.586 301.785 701.306 301.344 702.026V700.694H299.202V710Z" fill="#120E21"/>
<g filter="url(#filter1_dddddd_1_351)">
<rect x="56" y="602" width="263" height="54" rx="27" fill="#9378FF"/>
<path d="M98.0835 622.986V636H101.198C105.905 636 108.11 633.66 108.11 629.421C108.11 625.362 106.112 623.085 101.342 623.004C100.244 622.986 98.2635 622.986 98.0835 622.986ZM100.046 624.606H101.27C104.294 624.606 106.085 625.866 106.085 629.43C106.085 633.057 104.159 634.38 101.216 634.38H100.046V624.606ZM112.477 622.995H110.542V624.894H112.477V622.995ZM112.441 626.694H110.587V636H112.441V626.694ZM118.66 636.18C120.937 636.18 122.332 635.127 122.332 633.372C122.332 632.481 121.873 631.284 120.055 630.816L118.291 630.375C117.265 630.141 116.743 629.826 116.743 629.214C116.743 628.314 117.526 627.882 118.633 627.882C119.704 627.882 120.379 628.404 120.505 629.25H122.17C122.125 627.477 120.748 626.514 118.651 626.514C116.239 626.514 114.997 627.702 115.006 629.34C115.015 630.771 116.014 631.5 117.553 631.851L119.407 632.292C120.253 632.481 120.622 632.841 120.622 633.48C120.622 634.371 119.83 634.785 118.651 634.785C117.589 634.785 116.653 634.29 116.419 633.228H114.7C114.988 635.289 116.707 636.18 118.66 636.18ZM128.329 626.514C125.593 626.514 123.991 628.485 123.991 631.392C123.991 634.47 125.791 636.18 128.329 636.18C130.579 636.18 131.956 634.794 132.1 633.03H130.462C130.318 633.894 129.562 634.749 128.41 634.749C126.709 634.749 125.818 633.426 125.818 631.356C125.818 629.115 126.844 628.035 128.392 628.035C129.607 628.035 130.3 628.854 130.453 629.772L132.118 629.754C131.893 627.819 130.498 626.514 128.329 626.514ZM138.093 636.18C140.883 636.18 142.404 634.218 142.404 631.392C142.404 628.296 140.712 626.514 138.102 626.514C135.339 626.514 133.764 628.467 133.764 631.392C133.764 634.452 135.474 636.18 138.093 636.18ZM138.102 634.695C136.347 634.695 135.663 633.165 135.663 631.338C135.663 629.295 136.491 627.99 138.102 627.99C139.83 627.99 140.505 629.484 140.505 631.338C140.505 633.354 139.686 634.695 138.102 634.695ZM151.653 626.694H149.871L147.513 633.561H147.387L145.029 626.694H143.247L146.64 636H148.269L151.653 626.694ZM154.457 631.797H161.009V631.158C161.009 628.341 159.551 626.514 156.869 626.514C154.115 626.514 152.531 628.548 152.531 631.446C152.531 634.389 154.34 636.18 156.986 636.18C158.831 636.18 160.55 635.181 160.964 633.219H159.182C158.831 634.227 158.057 634.722 156.95 634.722C155.294 634.722 154.457 633.462 154.457 631.797ZM154.466 630.546C154.457 629.259 155.258 627.927 156.86 627.927C158.426 627.927 159.182 629.079 159.182 630.546H154.466ZM163.229 636H165.155V630.402C165.155 629.088 166.136 628.251 168.206 628.377C168.323 628.386 168.341 628.386 168.404 628.422V626.55C168.368 626.523 168.287 626.514 168.197 626.514C166.595 626.514 165.533 627.45 165.074 628.602V626.694H163.229V636ZM179.265 628.08V626.685H177.177V623.958H175.782L175.305 626.694H173.739V628.08H175.251V633.705C175.251 635.199 175.791 636.063 177.87 636.063C178.608 636.063 179.076 635.982 179.319 635.883V634.632H178.23C177.438 634.632 177.186 634.542 177.186 633.633L177.177 628.08H179.265ZM181.563 636H183.489V629.862C183.489 628.701 184.542 628.134 185.694 628.134C186.81 628.134 187.62 628.728 187.62 629.763V636H189.546V629.412C189.546 627.666 188.106 626.595 186.297 626.595C184.812 626.595 183.921 627.324 183.462 628.053V622.626H181.563V636ZM193.516 631.797H200.068V631.158C200.068 628.341 198.61 626.514 195.928 626.514C193.174 626.514 191.59 628.548 191.59 631.446C191.59 634.389 193.399 636.18 196.045 636.18C197.89 636.18 199.609 635.181 200.023 633.219H198.241C197.89 634.227 197.116 634.722 196.009 634.722C194.353 634.722 193.516 633.462 193.516 631.797ZM193.525 630.546C193.516 629.259 194.317 627.927 195.919 627.927C197.485 627.927 198.241 629.079 198.241 630.546H193.525ZM206.243 638.898H208.178V634.398C208.601 635.208 209.492 636.18 211.031 636.18C213.407 636.18 214.919 634.479 214.919 631.239C214.919 628.017 213.38 626.514 211.193 626.514C209.609 626.514 208.646 627.45 208.187 628.242L208.169 626.694H206.243V638.898ZM210.626 634.713C208.997 634.713 208.16 633.165 208.16 631.275C208.16 629.34 208.997 627.981 210.626 627.981C212.192 627.981 213.074 629.25 213.074 631.275C213.074 633.642 212.048 634.713 210.626 634.713ZM219.556 636.126C219.826 636.126 220.159 636.063 220.465 635.964V634.74L219.979 634.722C219.277 634.668 218.926 634.218 218.926 633.345V622.626H217.036V633.543C217.036 634.866 217.342 636.126 219.556 636.126ZM225.095 636.18C226.427 636.18 227.516 635.712 228.209 634.29L228.362 636H229.991V629.493C229.991 627.576 228.821 626.514 226.283 626.514C224.006 626.514 222.539 627.495 222.44 629.358H224.105C224.339 628.323 225.203 627.9 226.193 627.891C227.516 627.882 228.137 628.539 228.137 629.601V630.276L226.616 630.321C223.394 630.375 222.017 631.383 222.017 633.444C222.017 635.172 223.295 636.18 225.095 636.18ZM225.707 634.839C224.636 634.839 223.862 634.254 223.862 633.255C223.862 631.941 224.96 631.446 226.877 631.419L228.137 631.392V632.931C228.128 633.903 226.868 634.839 225.707 634.839ZM237.273 628.08V626.685H235.185V623.958H233.79L233.313 626.694H231.747V628.08H233.259V633.705C233.259 635.199 233.799 636.063 235.878 636.063C236.616 636.063 237.084 635.982 237.327 635.883V634.632H236.238C235.446 634.632 235.194 634.542 235.194 633.633L235.185 628.08H237.273ZM245.075 626.694H242.861V625.506C242.861 624.696 243.086 624.318 243.824 624.318H245.165L245.156 622.986H243.302C241.763 622.986 240.962 623.796 240.962 625.281V626.694H239.063V628.08H240.962V636H242.897V628.08H245.075V626.694ZM250.681 636.18C253.471 636.18 254.992 634.218 254.992 631.392C254.992 628.296 253.3 626.514 250.69 626.514C247.927 626.514 246.352 628.467 246.352 631.392C246.352 634.452 248.062 636.18 250.681 636.18ZM250.69 634.695C248.935 634.695 248.251 633.165 248.251 631.338C248.251 629.295 249.079 627.99 250.69 627.99C252.418 627.99 253.093 629.484 253.093 631.338C253.093 633.354 252.274 634.695 250.69 634.695ZM257.097 636H259.023V630.402C259.023 629.088 260.004 628.251 262.074 628.377C262.191 628.386 262.209 628.386 262.272 628.422V626.55C262.236 626.523 262.155 626.514 262.065 626.514C260.463 626.514 259.401 627.45 258.942 628.602V626.694H257.097V636ZM264.128 636H266.054V629.853C266.054 628.647 267.116 628.125 267.998 628.125C268.817 628.125 269.78 628.656 269.78 629.691V636H271.697V629.853C271.697 628.557 272.822 628.125 273.65 628.125C274.568 628.125 275.441 628.575 275.441 630.105V636H277.376V629.898C277.376 627.216 275.675 626.514 274.334 626.514C273.11 626.514 272.093 627.135 271.508 628.026C271.004 627.036 269.852 626.514 268.844 626.514C267.395 626.514 266.522 627.216 266 628.035V626.694H264.128V636Z" fill="white"/>
</g>
<g filter="url(#filter2_dddddd_1_351)">
<path d="M66.2586 304.864C73.9386 312.64 84.3066 316.96 95.0586 316.96C111.091 316.96 121.843 308.704 121.843 296.32C121.843 285.856 115.411 280 101.203 277.696L90.3546 275.968C81.7146 274.528 78.3546 271.936 78.3546 266.464C78.3546 260.512 84.2106 256.48 92.9466 256.48C100.435 256.48 107.635 259.168 114.931 264.736L120.499 257.056C112.915 251.2 103.027 247.936 93.4266 247.936C78.4506 247.936 68.6586 255.52 68.6586 267.232C68.6586 276.928 74.7066 282.688 86.9946 284.704L98.2266 286.528C108.019 288.16 111.859 291.136 111.859 297.088C111.859 303.712 105.235 308.32 95.5386 308.32C87.1866 308.32 79.6986 304.864 72.4026 297.76L66.2586 304.864ZM126.19 335.872H135.79V311.968C139.918 315.04 145.102 316.768 150.478 316.768C164.494 316.768 175.342 305.728 175.342 291.52C175.342 277.408 164.494 266.368 150.67 266.368C144.91 266.368 139.726 268.288 135.694 271.84V267.136H126.19V335.872ZM149.422 274.72C158.734 274.72 165.934 282.016 165.934 291.616C165.934 301.216 158.83 308.416 149.422 308.416C143.95 308.416 138.862 306.208 135.79 302.656V280.576C138.958 276.832 143.854 274.72 149.422 274.72ZM185.462 259.264C188.726 259.264 191.414 256.576 191.414 253.312C191.414 250.048 188.726 247.36 185.462 247.36C182.198 247.36 179.606 250.048 179.606 253.312C179.606 256.576 182.198 259.264 185.462 259.264ZM190.262 267.136H180.662V316H190.262V267.136ZM202.528 259.264C205.792 259.264 208.48 256.576 208.48 253.312C208.48 250.048 205.792 247.36 202.528 247.36C199.264 247.36 196.672 250.048 196.672 253.312C196.672 256.576 199.264 259.264 202.528 259.264ZM207.328 267.136H197.728V316H207.328V267.136ZM238.123 308.416C229.099 308.416 222.091 301.12 222.091 291.52C222.091 282.112 229.003 274.72 237.931 274.72C242.923 274.72 247.627 276.832 251.371 280.864L257.419 274.336C252.331 269.152 245.131 266.176 237.739 266.176C223.627 266.176 212.587 277.312 212.587 291.52C212.587 305.824 223.627 316.864 237.739 316.864C245.035 316.864 251.947 313.888 257.035 308.704L251.275 302.464C247.339 306.496 243.019 308.416 238.123 308.416ZM301.478 310.432L295.334 304.384C292.262 307.072 287.75 308.704 282.95 308.704C274.502 308.704 267.782 302.848 266.438 294.688H305.03V291.904C305.03 277.504 294.854 266.368 281.414 266.368C267.686 266.368 256.934 277.408 256.934 291.52C256.934 305.824 268.166 316.864 282.566 316.864C289.862 316.864 295.814 314.848 301.478 310.432ZM281.222 274.432C288.326 274.432 294.086 280 295.526 287.488H266.534C267.974 279.712 273.83 274.432 281.222 274.432Z" fill="#120E21"/>
</g>
</g>
<defs>
<filter id="filter0_iii_1_351" x="-75" y="-62" width="557" height="871" filterUnits="userSpaceOnUse" color-interpolation-filters="sRGB">
<feFlood flood-opacity="0" result="BackgroundImageFix"/>
<feBlend mode="normal" in="SourceGraphic" in2="BackgroundImageFix" result="shape"/>
<feColorMatrix in="SourceAlpha" type="matrix" values="0 0 0 0 0 0 0 0 0 0 0 0 0 0 0 0 0 0 127 0" result="hardAlpha"/>
<feOffset dx="-16" dy="8"/>
<feGaussianBlur stdDeviation="12"/>
<feComposite in2="hardAlpha" operator="arithmetic" k2="-1" k3="1"/>
<feColorMatrix type="matrix" values="0 0 0 0 1 0 0 0 0 1 0 0 0 0 1 0 0 0 0.71 0"/>
<feBlend mode="normal" in2="shape" result="effect1_innerShadow_1_351"/>
<feColorMatrix in="SourceAlpha" type="matrix" values="0 0 0 0 0 0 0 0 0 0 0 0 0 0 0 0 0 0 127 0" result="hardAlpha"/>
<feOffset dx="40" dy="32"/>
<feGaussianBlur stdDeviation="32"/>
<feComposite in2="hardAlpha" operator="arithmetic" k2="-1" k3="1"/>
<feColorMatrix type="matrix" values="0 0 0 0 1 0 0 0 0 1 0 0 0 0 1 0 0 0 1 0"/>
<feBlend mode="normal" in2="effect1_innerShadow_1_351" result="effect2_innerShadow_1_351"/>
<feColorMatrix in="SourceAlpha" type="matrix" values="0 0 0 0 0 0 0 0 0 0 0 0 0 0 0 0 0 0 127 0" result="hardAlpha"/>
<feOffset dx="16" dy="-20"/>
<feGaussianBlur stdDeviation="12"/>
<feComposite in2="hardAlpha" operator="arithmetic" k2="-1" k3="1"/>
<feColorMatrix type="matrix" values="0 0 0 0 0 0 0 0 0 0 0 0 0 0 0 0 0 0 0.08 0"/>
<feBlend mode="normal" in2="effect2_innerShadow_1_351" result="effect3_innerShadow_1_351"/>
</filter>
<filter id="filter1_dddddd_1_351" x="-24" y="602" width="423" height="234" filterUnits="userSpaceOnUse" color-interpolation-filters="sRGB">
<feFlood flood-opacity="0" result="BackgroundImageFix"/>
<feColorMatrix in="SourceAlpha" type="matrix" values="0 0 0 0 0 0 0 0 0 0 0 0 0 0 0 0 0 0 127 0" result="hardAlpha"/>
<feOffset dy="2.76726"/>
<feGaussianBlur stdDeviation="1.1069"/>
<feColorMatrix type="matrix" values="0 0 0 0 0.576471 0 0 0 0 0.470588 0 0 0 0 1 0 0 0 0.0196802 0"/>
<feBlend mode="normal" in2="BackgroundImageFix" result="effect1_dropShadow_1_351"/>
<feColorMatrix in="SourceAlpha" type="matrix" values="0 0 0 0 0 0 0 0 0 0 0 0 0 0 0 0 0 0 127 0" result="hardAlpha"/>
<feOffset dy="6.6501"/>
<feGaussianBlur stdDeviation="2.66004"/>
<feColorMatrix type="matrix" values="0 0 0 0 0.576471 0 0 0 0 0.470588 0 0 0 0 1 0 0 0 0.0282725 0"/>
<feBlend mode="normal" in2="effect1_dropShadow_1_351" result="effect2_dropShadow_1_351"/>
<feColorMatrix in="SourceAlpha" type="matrix" values="0 0 0 0 0 0 0 0 0 0 0 0 0 0 0 0 0 0 127 0" result="hardAlpha"/>
<feOffset dy="12.5216"/>
<feGaussianBlur stdDeviation="5.00862"/>
<feColorMatrix type="matrix" values="0 0 0 0 0.576471 0 0 0 0 0.470588 0 0 0 0 1 0 0 0 0.035 0"/>
<feBlend mode="normal" in2="effect2_dropShadow_1_351" result="effect3_dropShadow_1_351"/>
<feColorMatrix in="SourceAlpha" type="matrix" values="0 0 0 0 0 0 0 0 0 0 0 0 0 0 0 0 0 0 127 0" result="hardAlpha"/>
<feOffset dy="22.3363"/>
<feGaussianBlur stdDeviation="8.93452"/>
<feColorMatrix type="matrix" values="0 0 0 0 0.576471 0 0 0 0 0.470588 0 0 0 0 1 0 0 0 0.0417275 0"/>
<feBlend mode="normal" in2="effect3_dropShadow_1_351" result="effect4_dropShadow_1_351"/>
<feColorMatrix in="SourceAlpha" type="matrix" values="0 0 0 0 0 0 0 0 0 0 0 0 0 0 0 0 0 0 127 0" result="hardAlpha"/>
<feOffset dy="41.7776"/>
<feGaussianBlur stdDeviation="16.711"/>
<feColorMatrix type="matrix" values="0 0 0 0 0.576471 0 0 0 0 0.470588 0 0 0 0 1 0 0 0 0.0503198 0"/>
<feBlend mode="normal" in2="effect4_dropShadow_1_351" result="effect5_dropShadow_1_351"/>
<feColorMatrix in="SourceAlpha" type="matrix" values="0 0 0 0 0 0 0 0 0 0 0 0 0 0 0 0 0 0 127 0" result="hardAlpha"/>
<feOffset dy="100"/>
<feGaussianBlur stdDeviation="40"/>
<feColorMatrix type="matrix" values="0 0 0 0 0.576471 0 0 0 0 0.470588 0 0 0 0 1 0 0 0 0.07 0"/>
<feBlend mode="normal" in2="effect5_dropShadow_1_351" result="effect6_dropShadow_1_351"/>
<feBlend mode="normal" in="SourceGraphic" in2="effect6_dropShadow_1_351" result="shape"/>
</filter>
<filter id="filter2_dddddd_1_351" x="-13.7414" y="247.36" width="398.772" height="268.512" filterUnits="userSpaceOnUse" color-interpolation-filters="sRGB">
<feFlood flood-opacity="0" result="BackgroundImageFix"/>
<feColorMatrix in="SourceAlpha" type="matrix" values="0 0 0 0 0 0 0 0 0 0 0 0 0 0 0 0 0 0 127 0" result="hardAlpha"/>
<feOffset dy="2.76726"/>
<feGaussianBlur stdDeviation="1.1069"/>
<feColorMatrix type="matrix" values="0 0 0 0 0.0705882 0 0 0 0 0.054902 0 0 0 0 0.129412 0 0 0 0.0196802 0"/>
<feBlend mode="normal" in2="BackgroundImageFix" result="effect1_dropShadow_1_351"/>
<feColorMatrix in="SourceAlpha" type="matrix" values="0 0 0 0 0 0 0 0 0 0 0 0 0 0 0 0 0 0 127 0" result="hardAlpha"/>
<feOffset dy="6.6501"/>
<feGaussianBlur stdDeviation="2.66004"/>
<feColorMatrix type="matrix" values="0 0 0 0 0.0705882 0 0 0 0 0.054902 0 0 0 0 0.129412 0 0 0 0.0282725 0"/>
<feBlend mode="normal" in2="effect1_dropShadow_1_351" result="effect2_dropShadow_1_351"/>
<feColorMatrix in="SourceAlpha" type="matrix" values="0 0 0 0 0 0 0 0 0 0 0 0 0 0 0 0 0 0 127 0" result="hardAlpha"/>
<feOffset dy="12.5216"/>
<feGaussianBlur stdDeviation="5.00862"/>
<feColorMatrix type="matrix" values="0 0 0 0 0.0705882 0 0 0 0 0.054902 0 0 0 0 0.129412 0 0 0 0.035 0"/>
<feBlend mode="normal" in2="effect2_dropShadow_1_351" result="effect3_dropShadow_1_351"/>
<feColorMatrix in="SourceAlpha" type="matrix" values="0 0 0 0 0 0 0 0 0 0 0 0 0 0 0 0 0 0 127 0" result="hardAlpha"/>
<feOffset dy="22.3363"/>
<feGaussianBlur stdDeviation="8.93452"/>
<feColorMatrix type="matrix" values="0 0 0 0 0.0705882 0 0 0 0 0.054902 0 0 0 0 0.129412 0 0 0 0.0417275 0"/>
<feBlend mode="normal" in2="effect3_dropShadow_1_351" result="effect4_dropShadow_1_351"/>
<feColorMatrix in="SourceAlpha" type="matrix" values="0 0 0 0 0 0 0 0 0 0 0 0 0 0 0 0 0 0 127 0" result="hardAlpha"/>
<feOffset dy="41.7776"/>
<feGaussianBlur stdDeviation="16.711"/>
<feColorMatrix type="matrix" values="0 0 0 0 0.0705882 0 0 0 0 0.054902 0 0 0 0 0.129412 0 0 0 0.0503198 0"/>
<feBlend mode="normal" in2="effect4_dropShadow_1_351" result="effect5_dropShadow_1_351"/>
<feColorMatrix in="SourceAlpha" type="matrix" values="0 0 0 0 0 0 0 0 0 0 0 0 0 0 0 0 0 0 127 0" result="hardAlpha"/>
<feOffset dy="100"/>
<feGaussianBlur stdDeviation="40"/>
<feColorMatrix type="matrix" values="0 0 0 0 0.0705882 0 0 0 0 0.054902 0 0 0 0 0.129412 0 0 0 0.07 0"/>
<feBlend mode="normal" in2="effect5_dropShadow_1_351" result="effect6_dropShadow_1_351"/>
<feBlend mode="normal" in="SourceGraphic" in2="effect6_dropShadow_1_351" result="shape"/>
</filter>
<clipPath id="clip0_1_351">
<rect width="375" height="812" fill="white"/>
</clipPath>
</defs>
</svg>
